<svg width="175" height="94" viewBox="0 0 175 94" fill="none" xmlns="http://www.w3.org/2000/svg">
<g opacity="0.5">
<path d="M37.2896 18C39.4666 20.5248 37.3435 25.4525 39.1279 28.3907C38.4182 28.9284 37.7085 29.4661 37 30.0038C38.0352 31.6109 38.9998 34.1572 37.663 35.3999C39.0321 36.5123 39.1626 39.2558 37.9072 40.5474C38.636 41.8188 39.506 42.973 40.4898 43.966C39.6676 44.242 38.8454 44.518 38.0244 44.794C38.1405 46.5672 38.788 48.2831 39.8196 49.5556C39.3481 49.9965 38.8765 50.4375 38.405 50.8784C38.6061 52.0278 38.8059 53.1785 39.007 54.328C38.63 54.7474 38.253 55.1668 37.876 55.5862C39.1039 56.6843 40.4108 57.6557 41.7763 58.4862C41.3922 58.7921 41.0092 59.0968 40.625 59.4027C41.4867 59.7002 41.4341 61.3658 40.71 62.0003C39.986 62.6348 39.001 62.5404 38.1106 62.4173C39.3349 63.9205 40.5592 65.4225 41.7835 66.9256C40.9015 67.4538 40.0195 67.9807 39.1362 68.5088C39.4582 69.1218 39.8914 69.6512 40.3965 70.0467C39.7825 70.1255 39.1698 70.2056 38.5558 70.2844C43.3752 72.4543 48.5968 72.8833 53.7321 73.2908C69.8707 74.5717 86.0786 75.8514 102.241 75.8323C102.728 73.9025 102.865 71.3419 101.355 70.7684C102.351 69.1385 101.747 66.4991 100.221 65.8156C100.57 64.3076 101.085 62.8511 101.747 61.4973C100.899 61.5869 100.052 61.6765 99.2048 61.7649C98.8446 60.0455 98.999 58.154 99.6345 56.5158C99.0732 56.3007 98.5131 56.0857 97.9518 55.8706C97.8357 54.702 97.7208 53.5334 97.6047 52.366C97.138 52.1306 96.6724 51.8964 96.2057 51.661C97.071 50.1053 98.0451 48.6356 99.1115 47.2722C98.6687 47.1479 98.2259 47.0225 97.7842 46.8982C98.5167 46.2518 98.026 44.7056 97.1763 44.4153C96.3254 44.1249 95.423 44.6327 94.6164 45.1262C95.3716 43.1905 96.1267 41.2548 96.8819 39.3191C95.9113 39.1972 94.9395 39.0741 93.9689 38.9523C94.109 38.2377 94.377 37.5554 94.748 36.9687C94.1484 37.1551 93.5501 37.3404 92.9505 37.5268C96.9154 33.4355 101.72 30.8127 106.45 28.2473C111.59 25.4596 116.739 22.6672 121.904 19.925L100.567 19.4398L37.2896 18Z" fill="#A3D9C5"/>
</g>
<g opacity="0.5">
<path d="M135.328 73.556C135.145 73.5166 134.956 73.4723 134.771 73.4186L134.108 73.734C134.514 73.6767 134.921 73.6169 135.328 73.556Z" fill="#A3D9C5"/>
</g>
<path d="M121.681 19.9345L106.101 26.5398L96.6736 30.6287L91.1768 33.3865L87.833 35.4262L84.9667 37.5375L87.2454 36.9795L86.7152 37.7837L86.2569 38.963L89.9501 39.3298L87.0767 45.137L87.8605 44.7785L88.5906 44.5132L89.1818 44.3806L89.9082 44.3531L90.3223 44.4272L90.9626 44.7845L91.2642 45.1381L91.4999 45.6687L91.4951 46.3701L91.0942 46.9102L92.7781 47.2842L90.1691 50.2319L89.0944 51.673L90.868 52.3779L91.3085 55.8825L93.4423 56.5278L92.905 57.9772L92.6931 59.1708L92.6847 60.5354L92.899 61.7757L96.1231 61.508L95.0017 63.6194L94.4069 65.1321L94.1867 65.8263L95.0017 66.2768L95.4134 66.6699L95.5522 66.842L96.0597 67.8051L96.2416 68.7992L96.1458 69.7073L95.9017 70.349L95.6264 70.7803L95.9855 70.9225L96.3241 71.14L96.6485 71.4769L96.9405 72.0051L97.1643 73.1127L97.1619 73.746L96.9884 74.9552L96.6473 76.1465L99.7314 76.7619L99.5339 77.9126L99.6308 79.1086L100.234 81.1507L100.773 82.5654L101.17 83.7448L101.455 85.3089L101.415 86.1489L101.026 87.3306C111.589 83.3588 122.152 79.3882 132.716 75.4165C134.476 74.7545 136.238 74.0925 137.998 73.4306C137.881 71.729 137.727 70.0072 137.53 68.2627C135.429 49.5473 129.173 33.3614 121.681 19.9345Z" fill="#A3D9C5"/>
</svg>
