<?xml version="1.0" encoding="utf-8"?>
<!-- Generator: Adobe Illustrator 25.0.0, SVG Export Plug-In . SVG Version: 6.00 Build 0)  -->
<svg version="1.1" id="Camada_1" xmlns="http://www.w3.org/2000/svg" xmlns:xlink="http://www.w3.org/1999/xlink" x="0px" y="0px"
	 viewBox="0 0 1078.45 580.2" style="enable-background:new 0 0 1078.45 580.2;" xml:space="preserve">
<style type="text/css">
	.st0{opacity:0.5;}
	.st1{opacity:0.5;fill:none;}
	.st2{fill:#DADADA;}
</style>
<g class="st0">
	<path class="st1" d="M691.04,608.28"/>
</g>
<g>
	<g>
		<g class="st0">
			<path class="st2" d="M2.43,0c18.19,21.13,0.45,62.37,15.36,86.96c-5.93,4.5-11.86,9-17.78,13.5
				c8.65,13.45,16.71,34.76,5.54,45.16c11.44,9.31,12.53,32.27,2.04,43.08c6.09,10.64,13.36,20.3,21.58,28.61
				c-6.87,2.31-13.74,4.62-20.6,6.93c0.97,14.84,6.38,29.2,15,39.85c-3.94,3.69-7.88,7.38-11.82,11.07
				c1.68,9.62,3.35,19.25,5.03,28.87c-3.15,3.51-6.3,7.02-9.45,10.53c10.26,9.19,21.18,17.32,32.59,24.27
				c-3.21,2.56-6.41,5.11-9.62,7.67c7.2,2.49,6.76,16.43,0.71,21.74c-6.05,5.31-14.28,4.52-21.72,3.49
				c10.23,12.58,20.46,25.15,30.69,37.73c-7.37,4.42-14.74,8.83-22.12,13.25c2.69,5.13,6.31,9.56,10.53,12.87
				c-5.13,0.66-10.25,1.33-15.38,1.99c40.27,18.16,83.9,21.75,126.81,25.16c134.85,10.72,270.28,21.43,405.33,21.27
				c4.07-16.15,5.21-37.58-7.4-42.38c8.32-13.64,3.27-35.73-9.48-41.45c2.92-12.62,7.22-24.81,12.75-36.14
				c-7.08,0.75-14.16,1.5-21.24,2.24c-3.01-14.39-1.72-30.22,3.59-43.93c-4.69-1.8-9.37-3.6-14.06-5.4
				c-0.97-9.78-1.93-19.56-2.9-29.33c-3.9-1.97-7.79-3.93-11.69-5.9c7.23-13.02,15.37-25.32,24.28-36.73
				c-3.7-1.04-7.4-2.09-11.09-3.13c6.12-5.41,2.02-18.35-5.08-20.78c-7.11-2.43-14.65,1.82-21.39,5.95
				c6.31-16.2,12.62-32.4,18.93-48.6c-8.11-1.02-16.23-2.05-24.34-3.07c1.17-5.98,3.41-11.69,6.51-16.6
				c-5.01,1.56-10.01,3.11-15.02,4.67c33.13-34.24,73.28-56.19,112.8-77.66c42.95-23.33,85.97-46.7,129.13-69.65l-178.29-4.06
				L2.43,0"/>
		</g>
		<g class="st0">
			<path class="st2" d="M821.62,464.95c-1.53-0.33-3.11-0.7-4.66-1.15l-5.54,2.64C814.82,465.96,818.22,465.46,821.62,464.95z"/>
		</g>
	</g>
	<path class="st2" d="M707.59,16.19L577.4,71.47l-78.77,34.22l-45.93,23.08l-27.94,17.07l-23.95,17.67l19.04-4.67l-4.43,6.73
		l-3.83,9.87l30.86,3.07l-24.01,48.6l6.55-3l6.1-2.22l4.94-1.11l6.07-0.23l3.46,0.62l5.35,2.99l2.52,2.96l1.97,4.44l-0.04,5.87
		l-3.35,4.52l14.07,3.13l-21.8,24.67l-8.98,12.06l14.82,5.9l3.68,29.33l17.83,5.4l-4.49,12.13l-1.77,9.99l-0.07,11.42l1.79,10.38
		l26.94-2.24l-9.37,17.67l-4.97,12.66l-1.84,5.81l6.81,3.77l3.44,3.29l1.16,1.44l4.24,8.06l1.52,8.32l-0.8,7.6l-2.04,5.37l-2.3,3.61
		l3,1.19l2.83,1.82l2.71,2.82l2.44,4.42l1.87,9.27l-0.02,5.3l-1.45,10.12l-2.85,9.97l25.77,5.15l-1.65,9.63l0.81,10.01l5.04,17.09
		l4.5,11.84l3.32,9.87l2.38,13.09l-0.33,7.03l-3.25,9.89c88.26-33.24,176.52-66.47,264.79-99.71c14.71-5.54,29.43-11.08,44.14-16.62
		c-0.98-14.24-2.27-28.65-3.91-43.25C822.46,264.02,770.19,128.56,707.59,16.19z"/>
</g>
</svg>
